REM DIRINDEX 1\2,1\3
REM DIRNAME folder01,folder02,folder03
TITLE ""
FILE "2000 phrasesTrack41.mp3" MP3
  TRACK 01 AUDIO
    TITLE "2:cjc143_1646"
    INDEX 01 00:00:00
  TRACK 02 AUDIO
    TITLE "0:"
    INDEX 01 00:00:62
  TRACK 03 AUDIO
    TITLE "2:cjc143_1647"
    INDEX 01 00:01:28
  TRACK 04 AUDIO
    TITLE "0:"
    INDEX 01 00:02:53
  TRACK 05 AUDIO
    TITLE "2:cjc143_1648"
    INDEX 01 00:03:23
  TRACK 06 AUDIO
    TITLE "0:"
    INDEX 01 00:04:44
  TRACK 07 AUDIO
    TITLE "2:cjc143_1649"
    INDEX 01 00:05:14
  TRACK 08 AUDIO
    TITLE "0:"
    INDEX 01 00:06:39
  TRACK 09 AUDIO
    TITLE "2:cjc143_1650"
    INDEX 01 00:07:07
  TRACK 10 AUDIO
    TITLE "0:"
    INDEX 01 00:08:38
  TRACK 11 AUDIO
    TITLE "2:cjc143_1651"
    INDEX 01 00:09:06
  TRACK 12 AUDIO
    TITLE "0:"
    INDEX 01 00:10:43
  TRACK 13 AUDIO
    TITLE "2:cjc143_1652"
    INDEX 01 00:11:11
  TRACK 14 AUDIO
    TITLE "0:"
    INDEX 01 00:12:44
  TRACK 15 AUDIO
    TITLE "2:cjc143_1653"
    INDEX 01 00:13:32
  TRACK 16 AUDIO
    TITLE "0:"
    INDEX 01 00:14:53
  TRACK 17 AUDIO
    TITLE "2:cjc143_1654"
    INDEX 01 00:15:21
  TRACK 18 AUDIO
    TITLE "0:"
    INDEX 01 00:16:63
  TRACK 19 AUDIO
    TITLE "2:cjc143_1655"
    INDEX 01 00:17:39
  TRACK 20 AUDIO
    TITLE "0:"
    INDEX 01 00:19:09
  TRACK 21 AUDIO
    TITLE "2:cjc143_1656"
    INDEX 01 00:19:56
  TRACK 22 AUDIO
    TITLE "0:"
    INDEX 01 00:21:00
  TRACK 23 AUDIO
    TITLE "2:cjc143_1657"
    INDEX 01 00:21:43
  TRACK 24 AUDIO
    TITLE "0:"
    INDEX 01 00:23:10
  TRACK 25 AUDIO
    TITLE "2:cjc143_1658"
    INDEX 01 00:23:55
  TRACK 26 AUDIO
    TITLE "0:"
    INDEX 01 00:25:01
  TRACK 27 AUDIO
    TITLE "2:cjc143_1659"
    INDEX 01 00:25:46
  TRACK 28 AUDIO
    TITLE "0:"
    INDEX 01 00:26:71
  TRACK 29 AUDIO
    TITLE "2:cjc143_1660"
    INDEX 01 00:27:43
  TRACK 30 AUDIO
    TITLE "0:"
    INDEX 01 00:28:68
  TRACK 31 AUDIO
    TITLE "2:cjc143_1661"
    INDEX 01 00:29:40
  TRACK 32 AUDIO
    TITLE "0:"
    INDEX 01 00:30:67
  TRACK 33 AUDIO
    TITLE "2:cjc143_1662"
    INDEX 01 00:31:35
  TRACK 34 AUDIO
    TITLE "0:"
    INDEX 01 00:33:17
  TRACK 35 AUDIO
    TITLE "2:cjc143_1663"
    INDEX 01 00:33:62
  TRACK 36 AUDIO
    TITLE "0:"
    INDEX 01 00:35:00
  TRACK 37 AUDIO
    TITLE "2:cjc143_1664"
    INDEX 01 00:35:43
  TRACK 38 AUDIO
    TITLE "0:"
    INDEX 01 00:36:68
  TRACK 39 AUDIO
    TITLE "2:cjc143_1665"
    INDEX 01 00:37:36
  TRACK 40 AUDIO
    TITLE "0:"
    INDEX 01 00:38:53
  TRACK 41 AUDIO
    TITLE "2:cjc143_1666"
    INDEX 01 00:39:27
  TRACK 42 AUDIO
    TITLE "0:"
    INDEX 01 00:40:48
  TRACK 43 AUDIO
    TITLE "2:cjc143_1667"
    INDEX 01 00:41:20
  TRACK 44 AUDIO
    TITLE "0:"
    INDEX 01 00:42:74
  TRACK 45 AUDIO
    TITLE "2:cjc143_1668"
    INDEX 01 00:43:40
  TRACK 46 AUDIO
    TITLE "0:"
    INDEX 01 00:45:10
  TRACK 47 AUDIO
    TITLE "2:cjc143_1669"
    INDEX 01 00:45:53
  TRACK 48 AUDIO
    TITLE "0:"
    INDEX 01 00:47:40
  TRACK 49 AUDIO
    TITLE "2:cjc143_1670"
    INDEX 01 00:48:10
  TRACK 50 AUDIO
    TITLE "0:"
    INDEX 01 00:50:03
  TRACK 51 AUDIO
    TITLE "2:cjc143_1671"
    INDEX 01 00:50:54
  TRACK 52 AUDIO
    TITLE "0:"
    INDEX 01 00:52:43
  TRACK 53 AUDIO
    TITLE "2:cjc143_1672"
    INDEX 01 00:53:13
  TRACK 54 AUDIO
    TITLE "0:"
    INDEX 01 00:54:56
  TRACK 55 AUDIO
    TITLE "2:cjc143_1673"
    INDEX 01 00:55:28
  TRACK 56 AUDIO
    TITLE "0:"
    INDEX 01 00:56:65
  TRACK 57 AUDIO
    TITLE "2:cjc143_1674"
    INDEX 01 00:57:41
  TRACK 58 AUDIO
    TITLE "0:"
    INDEX 01 00:58:62
  TRACK 59 AUDIO
    TITLE "2:cjc143_1675"
    INDEX 01 00:59:32
  TRACK 60 AUDIO
    TITLE "0:"
    INDEX 01 01:00:64
  TRACK 61 AUDIO
    TITLE "2:cjc143_1676"
    INDEX 01 01:01:31
  TRACK 62 AUDIO
    TITLE "0:"
    INDEX 01 01:02:61
  TRACK 63 AUDIO
    TITLE "2:cjc143_1677"
    INDEX 01 01:03:31
  TRACK 64 AUDIO
    TITLE "0:"
    INDEX 01 01:04:66
  TRACK 65 AUDIO
    TITLE "2:cjc143_1678"
    INDEX 01 01:05:36
  TRACK 66 AUDIO
    TITLE "0:"
    INDEX 01 01:06:59
  TRACK 67 AUDIO
    TITLE "2:cjc143_1679"
    INDEX 01 01:07:33
  TRACK 68 AUDIO
    TITLE "0:"
    INDEX 01 01:08:64
  TRACK 69 AUDIO
    TITLE "2:cjc143_1680"
    INDEX 01 01:09:34
  TRACK 70 AUDIO
    TITLE "0:"
    INDEX 01 01:10:63
  TRACK 71 AUDIO
    TITLE "2:cjc143_1681"
    INDEX 01 01:11:35
  TRACK 72 AUDIO
    TITLE "0:"
    INDEX 01 01:12:68
  TRACK 73 AUDIO
    TITLE "2:cjc143_1682"
    INDEX 01 01:13:42
  TRACK 74 AUDIO
    TITLE "0:"
    INDEX 01 01:14:70
  TRACK 75 AUDIO
    TITLE "2:cjc143_1683"
    INDEX 01 01:15:40
  TRACK 76 AUDIO
    TITLE "0:"
    INDEX 01 01:16:73
  TRACK 77 AUDIO
    TITLE "2:cjc143_1684"
    INDEX 01 01:17:47
  TRACK 78 AUDIO
    TITLE "0:"
    INDEX 01 01:18:53
  TRACK 79 AUDIO
    TITLE "2:cjc143_1685"
    INDEX 01 01:19:28
  TRACK 80 AUDIO
    TITLE "0:"
    INDEX 01 01:20:48
  TRACK 81 AUDIO
    TITLE "2:cjc143_1686"
    INDEX 01 01:21:39
  TRACK 82 AUDIO
    TITLE "0:"
    INDEX 01 01:22:58
  TRACK 83 AUDIO
    TITLE "2:cjc143_1687"
    INDEX 01 01:23:34
  TRACK 84 AUDIO
    TITLE "0:"
    INDEX 01 01:24:59
  TRACK 85 AUDIO
    TITLE "2:cjc143_1688"
    INDEX 01 01:25:35
  TRACK 86 AUDIO
    TITLE "0:"
    INDEX 01 01:26:50
  TRACK 87 AUDIO
    TITLE "2:cjc143_1689"
    INDEX 01 01:27:22
  TRACK 88 AUDIO
    TITLE "0:"
    INDEX 01 01:28:41
  TRACK 89 AUDIO
    TITLE "2:cjc143_1690"
    INDEX 01 01:29:11
  TRACK 90 AUDIO
    TITLE "0:"
    INDEX 01 01:30:32
  TRACK 91 AUDIO
    TITLE "2:cjc143_1691"
    INDEX 01 01:31:08
  TRACK 92 AUDIO
    TITLE "0:"
    INDEX 01 01:32:35
  TRACK 93 AUDIO
    TITLE "2:cjc143_1692"
    INDEX 01 01:33:03
  TRACK 94 AUDIO
    TITLE "0:"
    INDEX 01 01:34:36
  TRACK 95 AUDIO
    TITLE "2:cjc143_1693"
    INDEX 01 01:35:10
  TRACK 96 AUDIO
    TITLE "0:"
    INDEX 01 01:36:47
  TRACK 97 AUDIO
    TITLE "2:cjc143_1694"
    INDEX 01 01:37:28
  TRACK 98 AUDIO
    TITLE "0:"
    INDEX 01 01:40:25
  TRACK 99 AUDIO
    TITLE "2:cjc143_1695"
    INDEX 01 01:40:72
  TRACK 100 AUDIO
    TITLE "0:"
    INDEX 01 01:42:63
  TRACK 101 AUDIO
    TITLE "2:cjc143_1696"
    INDEX 01 01:43:37
  TRACK 102 AUDIO
    TITLE "0:"
    INDEX 01 01:45:42
  TRACK 103 AUDIO
    TITLE "2:cjc143_1697"
    INDEX 01 01:46:10
  TRACK 104 AUDIO
    TITLE "0:"
    INDEX 01 01:47:33
  TRACK 105 AUDIO
    TITLE "2:cjc143_1698"
    INDEX 01 01:48:03
  TRACK 106 AUDIO
    TITLE "0:"
    INDEX 01 01:49:35
  TRACK 107 AUDIO
    TITLE "2:cjc143_1699"
    INDEX 01 01:50:07
  TRACK 108 AUDIO
    TITLE "0:"
    INDEX 01 01:51:40
  TRACK 109 AUDIO
    TITLE "2:cjc143_1700"
    INDEX 01 01:52:22
  TRACK 110 AUDIO
    TITLE "0:"
    INDEX 01 01:53:65
  TRACK 111 AUDIO
    TITLE "2:cjc143_1701"
    INDEX 01 01:54:46
  TRACK 112 AUDIO
    TITLE "0:"
    INDEX 01 01:56:06
